inDegrees=yes
name=ik_lifting_orientations
DataType=double
version=3
OpenSimVersion=4.5-2024-01-10-34fd6af
endheader
time	pelvis_tilt	pelvis_list	pelvis_rotation	pelvis_tx	pelvis_ty	pelvis_tz	hip_flexion_r	hip_adduction_r	hip_rotation_r	knee_angle_r	knee_angle_r_beta	ankle_angle_r	subtalar_angle_r	mtp_angle_r	hip_flexion_l	hip_adduction_l	hip_rotation_l	knee_angle_l	knee_angle_l_beta	ankle_angle_l	subtalar_angle_l	mtp_angle_l	lumbar_extension	lumbar_bending	lumbar_rotation	arm_flex_r	arm_add_r	arm_rot_r	elbow_flex_r	pro_sup_r	wrist_flex_r	wrist_dev_r	arm_flex_l	arm_add_l	arm_rot_l	elbow_flex_l	pro_sup_l	wrist_flex_l	wrist_dev_l
3.51	2.118545632732807	0.01564736075893046	-91.4804596906433	0	0.9400000003403366	0	44.99739420684392	-10.00000013940044	0	59.9855735030478	1.046945761325253	-4.999999851652972	0	0	44.99739420684392	-10.00000013940044	0	59.9855735030478	1.046945761325253	-4.999999851652972	0	0	5.517405728763594	-12.60517942595962	2.185265614338348	-5.368393465960219	10.57730683251447	0.2160823273486639	0.4917024104977332	-0.1833113576616041	0	0	0	-14.64223179693941	0	75.01791302173825	0.183101083414322	0	0
3.52	2.10419751184002	0.03617910199425524	-91.47416196223205	0	0.9400000003403366	0	44.9973950188127	-10.00000013923668	0	59.98557707198106	1.046945823614889	-4.99999985165211	0	0	44.9973950188127	-10.00000013923668	0	59.98557707198106	1.046945823614889	-4.99999985165211	0	0	4.766824541007407	-11.97268928340214	1.070190578317305	-4.793415921490626	9.857431709349902	1.115489603126803	0.4950265560872391	-0.1832716142057908	0	0	0	-14.64228894031085	0	75.01790749508721	0.1830613399582335	0	0
3.53	2.111035550030295	0.008606333360187865	-91.47027804135884	0	0.9400000003403366	0	44.99739581904502	-10.00000013907555	0	59.98558059186974	1.046945885048536	-4.999999851651264	0	0	44.99739581904502	-10.00000013907555	0	59.98558059186974	1.046945885048536	-4.999999851651264	0	0	5.405499823389011	-10.9888283338766	2.08419716049587	-5.315000150705065	8.963508441829592	0.1349236570170199	0.4905386489055633	-0.183232431636615	0	0	0	-14.64234529244841	0	75.0179020483201	0.1830221573887809	0	0
3.54	2.120943589728006	0.01761521327306513	-91.47272213178495	0	0.9400000003403366	0	44.99752343148863	-10.00000011910854	0	59.98615192513143	1.046955856695079	-4.999999851556581	0	0	44.99752343148863	-10.00000011910854	0	59.98615192513143	1.046955856695079	-4.999999851556581	0	0	5.421743790397727	-11.00559307655676	2.089886948711685	-5.32169816465291	8.970496772158521	0.132796123014668	0.4897890130639465	-0.1767809268217432	0	0	0	-14.65180156230359	0	75.01703345606035	0.1765706525293349	0	0
3.55	2.114060923845539	0.02590049926599184	-91.48482310262801	0	0.9400000003403366	0	44.99752408645047	-10.00000011898837	0	59.98615483650139	1.04695590750807	-4.999999851555972	0	0	44.99752408645047	-10.00000011898837	0	59.98615483650139	1.04695590750807	-4.999999851555972	0	0	4.523419990833298	-9.570257011396741	1.778582487854756	-4.48672519876629	7.507345540760609	0.1695605019737118	0.495607241198844	-0.1767483869496313	0	0	0	-14.65184879372871	0	75.01702899807327	0.1765381126569972	0	0
3.56	2.121686819319478	0.01948078301661467	-91.46606777149773	0	0.9400000003403366	0	44.99752471033678	-10.00000011887414	0	59.9861576129556	1.046955955966338	-4.999999851555399	0	0	44.99752471033678	-10.00000011887414	0	59.9861576129556	1.046955955966338	-4.999999851555399	0	0	5.43147063635011	-8.636454872989688	1.191706633842705	-5.487023541846758	6.528969369677121	0.8078063792351975	0.4824834470305977	-0.1767173754670672	0	0	0	-14.65189382517387	0	75.01702475160108	0.1765071011742096	0	0
3.57	2.124259240305757	0.0127264396766409	-91.46757745192629	0	0.9400000003403366	0	44.99752536558902	-10.00000011875407	0	59.98616052598898	1.046956006808361	-4.999999851554793	0	0	44.99752536558902	-10.00000011875407	0	59.98616052598898	1.046956006808361	-4.999999851554793	0	0	5.236760845313672	-7.81692445971126	1.941165346483183	-5.234909461616824	5.777840403205151	-0.04912004452696403	0.492052461612264	-0.1766848160440366	0	0	0	-14.65194108980666	0	75.01702029163728	0.1764745417509593	0	0
3.58	2.119902115432104	0.0174637213405403	-91.47855513397845	0	0.9400000003403366	0	44.9975260452302	-10.00000011862943	0	59.98616354391906	1.046956059481178	-4.99999985155416	0	0	44.9975260452302	-10.00000011862943	0	59.98616354391906	1.046956059481178	-4.99999985155416	0	0	4.460494532746056	-7.69643374059484	1.689241805515085	-4.478399971381709	5.625490660470344	0.09706899988326045	0.4898164015760729	-0.1766510580056835	0	0	0	-14.65199007699574	0	75.01701566567064	0.1764407837123744	0	0
